<svg width="140" height="91" viewBox="0 0 140 91" fill="none" xmlns="http://www.w3.org/2000/svg">
<path d="M86.0553 61.6646C104.891 51.097 128.723 57.6404 139.522 76.3447L123.271 85.7276C104.348 96.6525 80.1473 90.0327 69.4199 70.9976L86.0553 61.6646Z" fill="white"/>
<path d="M79.1645 54.2564C89.9248 35.619 113.756 29.2333 132.394 39.9936L122.652 56.8666C111.892 75.504 88.0602 81.8896 69.4229 71.1293L79.1645 54.2564Z" fill="white"/>
<path d="M68.5801 52.4508C68.5801 29.8473 86.9039 11.5234 109.507 11.5234V30.6228C109.507 53.2264 91.1836 71.5502 68.5801 71.5502V52.4508Z" fill="white"/>
<path d="M58.9243 53.2292C48.164 34.5919 54.5496 10.7603 73.187 0L82.9286 16.873C93.6889 35.5104 87.3033 59.3419 68.6659 70.1022L58.9243 53.2292Z" fill="white"/>
<path d="M68.5807 49.7223C68.5807 28.6257 51.4785 11.5234 30.3818 11.5234V33.3513C30.3818 54.448 47.4841 71.5502 68.5807 71.5502V49.7223Z" fill="white"/>
<path d="M60.3581 54.2564C49.5978 35.619 25.7663 29.2333 7.12891 39.9936L16.8705 56.8666C27.6308 75.504 51.4624 81.8896 70.0998 71.1293L60.3581 54.2564Z" fill="white"/>
<path d="M53.4668 61.6646C34.6308 51.097 10.7989 57.6404 0 76.3447L16.2516 85.7276C35.174 96.6525 59.3749 90.0327 70.1022 70.9976L53.4668 61.6646Z" fill="white"/>
</svg>
